<?xml version="1.0"?>
<svg xmlns="http://www.w3.org/2000/svg" xmlns:xlink="http://www.w3.org/1999/xlink" xmlns:svgjs="http://svgjs.com/svgjs" version="1.1" width="20" height="20" x="0" y="0" viewBox="0 0 476.584 476.584" style="enable-background:new 0 0 512 512" xml:space="preserve" class=""><g>
<g xmlns="http://www.w3.org/2000/svg" id="deviant_2_">
	<path d="M406.755,215.815c-43.237-26.973-103.029-44.391-168.992-44.391c-2.338,0-1.09,0-1.09,0v-41.813   c-31.923,0.406-47.884,2.432-63.845,6.002v44.227c-47.883,7.279-74.91,19.968-101.813,36.824C27.746,243.475,0,281.147,0,322.11   c0,8.283,0.094,8.9,2.215,24.861h12.781h71.792h82.05h67.835V298.13v-94.791c0,0-1.248,0,1.09,0   c109.482,0,143.275,47.883,151.254,95.758h-72.541v-66.158c-31.921-5.285-47.882-8.573-63.845-8.994v74.186v33.395v15.447h136.263   h73.102h11.502c2.09-15.961,3.087-17.006,3.087-25.29C476.584,280.72,449.932,242.625,406.755,215.815z M172.828,217.943v81.153   H86.664C92.398,267.175,108.985,233.063,172.828,217.943z" fill="#0bc7b4" data-original="#000000" style="" class=""/>
</g>
<g xmlns="http://www.w3.org/2000/svg">
</g>
<g xmlns="http://www.w3.org/2000/svg">
</g>
<g xmlns="http://www.w3.org/2000/svg">
</g>
<g xmlns="http://www.w3.org/2000/svg">
</g>
<g xmlns="http://www.w3.org/2000/svg">
</g>
<g xmlns="http://www.w3.org/2000/svg">
</g>
<g xmlns="http://www.w3.org/2000/svg">
</g>
<g xmlns="http://www.w3.org/2000/svg">
</g>
<g xmlns="http://www.w3.org/2000/svg">
</g>
<g xmlns="http://www.w3.org/2000/svg">
</g>
<g xmlns="http://www.w3.org/2000/svg">
</g>
<g xmlns="http://www.w3.org/2000/svg">
</g>
<g xmlns="http://www.w3.org/2000/svg">
</g>
<g xmlns="http://www.w3.org/2000/svg">
</g>
<g xmlns="http://www.w3.org/2000/svg">
</g>
</g></svg>
